<svg xmlns="http://www.w3.org/2000/svg" width="256" height="256"><path fill-opacity=".016" d="M0 128.004v128.004l128.25-.254 128.25-.254.254-127.75L257.008 0H0v128.004m.485.496c0 70.4.119 99.053.265 63.672.146-35.38.146-92.98 0-128C.604 29.153.485 58.1.485 128.5" fill="#1976D2" fill-rule="evenodd"/><path fill-opacity=".167" d="M108 1.106c0 .608-1.071 1.949-2.38 2.979-1.509 1.187-3.2 4.534-4.619 9.144-1.232 3.999-2.815 8.846-3.519 10.771-.704 1.925-2.509 7.55-4.012 12.5A1822.371 1822.371 0 0 1 88.043 54c-1.482 4.675-3.517 11.2-4.521 14.5-1.004 3.3-3.048 9.825-4.542 14.5-2.484 7.769-5.789 18.492-9.709 31.5-.829 2.75-2.129 6.478-2.889 8.284-.76 1.806-1.382 4.408-1.382 5.781 0 1.374-.675 2.757-1.5 3.073-1.081.415-1.5 2.108-1.5 6.059 0 9.163.196 9.23 27.191 9.27 12.894.019 22.939.435 23.267.964.316.513-.054 2.425-.823 4.25-1.348 3.198-2.364 6.388-6.156 19.319-.967 3.3-2.076 6.9-2.463 8-1.654 4.699-3.88 12.237-4.5 15.239-.369 1.781-1.085 3.495-1.593 3.809-.508.313-.923 1.653-.923 2.977 0 1.324-.622 3.885-1.382 5.691-1.332 3.165-2.354 6.376-6.139 19.284-.967 3.3-2.076 6.9-2.463 8-.387 1.1-1.417 4.25-2.289 7-4.926 15.539-1.487 19.107 7.381 7.659 1.985-2.563 6.875-8.709 10.866-13.659 12.392-15.367 17.79-22.131 24.479-30.674 2.725-3.479 5.202-6.551 5.504-6.826.303-.275 3.218-3.875 6.478-8 3.259-4.125 7.307-9.099 8.995-11.052 1.689-1.954 6.67-8.197 11.07-13.873s8.832-11.277 9.849-12.447c1.017-1.17 5.517-6.796 10-12.501 4.483-5.705 9.374-11.78 10.869-13.5 3.585-4.124 4.405-8.027 2.347-11.168L189.954 113h-24.81c-13.646 0-25.037-.226-25.314-.503-.277-.277 8.143-17.939 18.711-39.25 29.146-58.774 31.461-63.6 31.46-65.593-.001-1.015-.773-3.152-1.717-4.75L186.569 0h-39.285C119.25 0 108 .317 108 1.106" fill="#1976D2" fill-rule="evenodd"/><path fill-opacity=".086" d="M103.186 64.748c9.177.165 24.477.165 34 .001 9.523-.165 2.014-.3-16.686-.3s-26.491.134-17.314.299m53.564-.086c.688.278 1.813.278 2.5 0 .688-.277.125-.504-1.25-.504s-1.937.227-1.25.504M86 69.5c0 1.375-.43 2.5-.955 2.5-.525 0-1.235 1.688-1.577 3.75-.343 2.063-1.218 5.1-1.946 6.75-1.463 3.319-9.138 27.403-10.121 31.759-.342 1.518-1.023 3.007-1.512 3.309-.489.303-.892 1.536-.895 2.741-.004 1.205-.679 3.48-1.5 5.055-.822 1.576-1.494 4.159-1.494 5.742 0 1.794-.753 3.347-2 4.126-2.371 1.481-2.875 7.768-.622 7.768.757 0 1.937.675 2.622 1.5 1.04 1.253 5.01 1.5 24.154 1.5 25.792 0 25.278-.166 22.544 7.288-.85 2.316-1.839 5.669-2.199 7.451-.359 1.781-1.068 3.495-1.576 3.809-.508.313-.923 1.653-.923 2.977 0 1.324-.622 3.885-1.382 5.691-.76 1.806-2.065 5.534-2.9 8.284-6.277 20.673-8.004 26.248-8.674 28-.42 1.1-1.549 4.7-2.509 8s-2.323 7.8-3.028 10c-7.078 22.077-7.669 24.387-6.688 26.142.921 1.645 1.353 1.442 4.601-2.163 1.972-2.189 6.793-8.029 10.714-12.979 3.922-4.95 8.599-10.8 10.395-13 1.795-2.2 6.099-7.6 9.562-12 12.641-16.057 23.751-29.896 26.409-32.894.55-.621 3.247-4.048 5.994-7.617s5.743-7.389 6.658-8.489c.915-1.1 7.18-8.975 13.923-17.5 6.742-8.525 13.983-17.606 16.092-20.179 4.365-5.33 5.127-10.058 1.899-11.786-1.18-.631-11.333-1.035-26.032-1.035-20.483 0-24.183-.225-24.672-1.498-.316-.824 1.222-5.212 3.417-9.75 2.196-4.539 4.266-8.927 4.6-9.752.335-.825 1.016-2.175 1.514-3C150.04 86.443 154 77.709 154 76.53c0-.707.675-1.845 1.5-2.53.825-.685 1.5-2.277 1.5-3.539s.563-2.521 1.25-2.799c.688-.277-13.937-.54-32.5-.583C103.864 67.028 92 67.352 92 68c0 .55-.675 1-1.5 1s-1.5-.45-1.5-1-.675-1-1.5-1c-.933 0-1.5.944-1.5 2.5" fill="#1976D2" fill-rule="evenodd"/><path fill-opacity=".115" d="M67.5 144c.382.617 8.983 1 22.477 1 12.023 0 22.59.281 23.484.623 1.321.507 1.497 1.488.944 5.25-.374 2.545-1.294 5.515-2.043 6.6-.749 1.084-1.362 2.945-1.362 4.135s-.672 3.452-1.494 5.028c-.821 1.575-1.496 3.85-1.5 5.055-.003 1.205-.456 2.469-1.006 2.809-.55.34-1.003 1.604-1.006 2.809-.004 1.205-.679 3.48-1.5 5.055-.822 1.576-1.497 3.601-1.5 4.5-.004.9-.679 2.925-1.5 4.5-.822 1.576-1.51 3.826-1.529 5-.02 1.175-.679 3.261-1.465 4.636s-1.448 3.4-1.471 4.5c-.023 1.1-.714 3.289-1.535 4.864-.822 1.576-1.51 3.826-1.529 5-.02 1.175-.679 3.261-1.465 4.636s-1.445 3.711-1.465 5.191c-.019 1.48-.45 2.948-.958 3.261-.508.314-1.227 2.028-1.599 3.809-1.002 4.802-3.491 12.993-4.55 14.975-1.214 2.272-1.194 6.764.029 6.764.526 0 3.564-3.252 6.75-7.227a1480.74 1480.74 0 0 1 7.459-9.25c3.182-3.862 10.355-12.909 14.234-17.952 2.145-2.789 4.191-5.296 4.547-5.571.355-.275 2.854-3.425 5.553-7s5.174-6.725 5.5-7c.326-.275 2.801-3.425 5.5-7s5.174-6.725 5.5-7c.326-.275 2.801-3.425 5.5-7s5.22-6.725 5.603-7c.382-.275 2.816-3.425 5.408-7 2.592-3.575 5.225-6.95 5.851-7.5 1.13-.993 8.583-10.858 10.01-13.25.593-.994-10.046-1.25-51.872-1.25-34.824 0-52.409.338-52 1" fill="#1976D2" fill-rule="evenodd"/></svg>